<mxfile host="app.diagrams.net" agent="Mozilla/5.0 (Macintosh; Intel Mac OS X 10_15_7) AppleWebKit/605.1.15 (KHTML, like Gecko) Version/17.6 Safari/605.1.15" version="25.0.1">
  <diagram name="Page-1" id="gcOh2L13ghurHqlArtQZ">
    <mxGraphModel dx="676" dy="398" grid="1" gridSize="10" guides="1" tooltips="1" connect="1" arrows="1" fold="1" page="1" pageScale="1" pageWidth="827" pageHeight="1169" background="#ffffff" math="0" shadow="0">
      <root>
        <mxCell id="0" />
        <mxCell id="1" parent="0" />
        <mxCell id="uvgIFms-rv46Gu-G6dfy-30" style="edgeStyle=orthogonalEdgeStyle;rounded=0;orthogonalLoop=1;jettySize=auto;html=1;exitX=0.5;exitY=1;exitDx=0;exitDy=0;entryX=0.5;entryY=0;entryDx=0;entryDy=0;" parent="1" source="VRNMHvbQ2h5_KSJw3uvR-1" target="uvgIFms-rv46Gu-G6dfy-111" edge="1">
          <mxGeometry relative="1" as="geometry">
            <mxPoint x="380" y="150" as="targetPoint" />
          </mxGeometry>
        </mxCell>
        <mxCell id="VRNMHvbQ2h5_KSJw3uvR-1" value="" style="ellipse;whiteSpace=wrap;html=1;aspect=fixed;" parent="1" vertex="1">
          <mxGeometry x="280" y="120" width="40" height="40" as="geometry" />
        </mxCell>
        <mxCell id="uvgIFms-rv46Gu-G6dfy-117" style="edgeStyle=orthogonalEdgeStyle;rounded=0;orthogonalLoop=1;jettySize=auto;html=1;exitX=0.5;exitY=1;exitDx=0;exitDy=0;entryX=0.5;entryY=0;entryDx=0;entryDy=0;" parent="1" source="uvgIFms-rv46Gu-G6dfy-111" edge="1">
          <mxGeometry relative="1" as="geometry">
            <mxPoint x="300" y="280" as="targetPoint" />
          </mxGeometry>
        </mxCell>
        <mxCell id="uvgIFms-rv46Gu-G6dfy-111" value="Receive an integer as n" style="rounded=1;whiteSpace=wrap;html=1;" parent="1" vertex="1">
          <mxGeometry x="240" y="200" width="120" height="40" as="geometry" />
        </mxCell>
        <mxCell id="DMdOqw-Hk1IALb-FgSjt-3" style="edgeStyle=orthogonalEdgeStyle;rounded=0;orthogonalLoop=1;jettySize=auto;html=1;exitX=0.5;exitY=1;exitDx=0;exitDy=0;entryX=0.5;entryY=0;entryDx=0;entryDy=0;" edge="1" parent="1" source="DMdOqw-Hk1IALb-FgSjt-1" target="DMdOqw-Hk1IALb-FgSjt-6">
          <mxGeometry relative="1" as="geometry">
            <mxPoint x="300" y="360" as="targetPoint" />
          </mxGeometry>
        </mxCell>
        <mxCell id="DMdOqw-Hk1IALb-FgSjt-1" value="Initialise a list of dimension n and an integer i equals to 1" style="rounded=1;whiteSpace=wrap;html=1;fontSize=11;" vertex="1" parent="1">
          <mxGeometry x="240" y="280" width="120" height="40" as="geometry" />
        </mxCell>
        <mxCell id="DMdOqw-Hk1IALb-FgSjt-9" style="edgeStyle=orthogonalEdgeStyle;rounded=0;orthogonalLoop=1;jettySize=auto;html=1;exitX=1;exitY=0.5;exitDx=0;exitDy=0;entryX=0;entryY=0.5;entryDx=0;entryDy=0;" edge="1" parent="1" source="DMdOqw-Hk1IALb-FgSjt-6" target="DMdOqw-Hk1IALb-FgSjt-7">
          <mxGeometry relative="1" as="geometry" />
        </mxCell>
        <mxCell id="DMdOqw-Hk1IALb-FgSjt-11" value="No" style="edgeLabel;html=1;align=center;verticalAlign=middle;resizable=0;points=[];" vertex="1" connectable="0" parent="DMdOqw-Hk1IALb-FgSjt-9">
          <mxGeometry x="-0.1427" y="1" relative="1" as="geometry">
            <mxPoint as="offset" />
          </mxGeometry>
        </mxCell>
        <mxCell id="DMdOqw-Hk1IALb-FgSjt-13" style="edgeStyle=orthogonalEdgeStyle;rounded=0;orthogonalLoop=1;jettySize=auto;html=1;exitX=0.5;exitY=1;exitDx=0;exitDy=0;entryX=0.5;entryY=0;entryDx=0;entryDy=0;" edge="1" parent="1" source="DMdOqw-Hk1IALb-FgSjt-6" target="DMdOqw-Hk1IALb-FgSjt-12">
          <mxGeometry relative="1" as="geometry" />
        </mxCell>
        <mxCell id="DMdOqw-Hk1IALb-FgSjt-14" value="Yes" style="edgeLabel;html=1;align=center;verticalAlign=middle;resizable=0;points=[];" vertex="1" connectable="0" parent="DMdOqw-Hk1IALb-FgSjt-13">
          <mxGeometry x="-0.4282" y="1" relative="1" as="geometry">
            <mxPoint as="offset" />
          </mxGeometry>
        </mxCell>
        <mxCell id="DMdOqw-Hk1IALb-FgSjt-6" value="i &amp;lt;= n" style="rhombus;whiteSpace=wrap;html=1;" vertex="1" parent="1">
          <mxGeometry x="275" y="360" width="50" height="50" as="geometry" />
        </mxCell>
        <mxCell id="DMdOqw-Hk1IALb-FgSjt-10" style="edgeStyle=orthogonalEdgeStyle;rounded=0;orthogonalLoop=1;jettySize=auto;html=1;exitX=1;exitY=0.5;exitDx=0;exitDy=0;entryX=0;entryY=0.5;entryDx=0;entryDy=0;" edge="1" parent="1" source="DMdOqw-Hk1IALb-FgSjt-7" target="DMdOqw-Hk1IALb-FgSjt-8">
          <mxGeometry relative="1" as="geometry" />
        </mxCell>
        <mxCell id="DMdOqw-Hk1IALb-FgSjt-7" value="Return the list" style="rounded=1;whiteSpace=wrap;html=1;" vertex="1" parent="1">
          <mxGeometry x="360" y="365" width="120" height="40" as="geometry" />
        </mxCell>
        <mxCell id="DMdOqw-Hk1IALb-FgSjt-8" value="" style="ellipse;whiteSpace=wrap;html=1;aspect=fixed;strokeWidth=3;" vertex="1" parent="1">
          <mxGeometry x="520" y="365" width="40" height="40" as="geometry" />
        </mxCell>
        <mxCell id="DMdOqw-Hk1IALb-FgSjt-16" style="edgeStyle=orthogonalEdgeStyle;rounded=0;orthogonalLoop=1;jettySize=auto;html=1;exitX=1;exitY=0.5;exitDx=0;exitDy=0;entryX=0;entryY=0.5;entryDx=0;entryDy=0;" edge="1" parent="1" source="DMdOqw-Hk1IALb-FgSjt-12" target="DMdOqw-Hk1IALb-FgSjt-15">
          <mxGeometry relative="1" as="geometry" />
        </mxCell>
        <mxCell id="DMdOqw-Hk1IALb-FgSjt-17" value="Yes" style="edgeLabel;html=1;align=center;verticalAlign=middle;resizable=0;points=[];" vertex="1" connectable="0" parent="DMdOqw-Hk1IALb-FgSjt-16">
          <mxGeometry x="-0.404" y="-1" relative="1" as="geometry">
            <mxPoint x="2" y="-1" as="offset" />
          </mxGeometry>
        </mxCell>
        <mxCell id="DMdOqw-Hk1IALb-FgSjt-20" style="edgeStyle=orthogonalEdgeStyle;rounded=0;orthogonalLoop=1;jettySize=auto;html=1;exitX=0;exitY=0.5;exitDx=0;exitDy=0;entryX=1;entryY=0.5;entryDx=0;entryDy=0;" edge="1" parent="1" source="DMdOqw-Hk1IALb-FgSjt-12" target="DMdOqw-Hk1IALb-FgSjt-19">
          <mxGeometry relative="1" as="geometry" />
        </mxCell>
        <mxCell id="DMdOqw-Hk1IALb-FgSjt-21" value="No" style="edgeLabel;html=1;align=center;verticalAlign=middle;resizable=0;points=[];" vertex="1" connectable="0" parent="DMdOqw-Hk1IALb-FgSjt-20">
          <mxGeometry x="-0.1103" y="1" relative="1" as="geometry">
            <mxPoint as="offset" />
          </mxGeometry>
        </mxCell>
        <mxCell id="DMdOqw-Hk1IALb-FgSjt-12" value="i % 2==0" style="rhombus;whiteSpace=wrap;html=1;fontSize=10;" vertex="1" parent="1">
          <mxGeometry x="275" y="450" width="50" height="50" as="geometry" />
        </mxCell>
        <mxCell id="DMdOqw-Hk1IALb-FgSjt-26" style="edgeStyle=orthogonalEdgeStyle;rounded=0;orthogonalLoop=1;jettySize=auto;html=1;exitX=0.5;exitY=1;exitDx=0;exitDy=0;entryX=0.5;entryY=0;entryDx=0;entryDy=0;" edge="1" parent="1" source="DMdOqw-Hk1IALb-FgSjt-15" target="DMdOqw-Hk1IALb-FgSjt-22">
          <mxGeometry relative="1" as="geometry">
            <Array as="points">
              <mxPoint x="420" y="515" />
              <mxPoint x="300" y="515" />
            </Array>
          </mxGeometry>
        </mxCell>
        <mxCell id="DMdOqw-Hk1IALb-FgSjt-15" value="Compute the factorial of i and append to the list&lt;div&gt;+&lt;/div&gt;" style="rounded=1;whiteSpace=wrap;html=1;fontSize=11;" vertex="1" parent="1">
          <mxGeometry x="360" y="455" width="120" height="40" as="geometry" />
        </mxCell>
        <mxCell id="DMdOqw-Hk1IALb-FgSjt-24" style="edgeStyle=orthogonalEdgeStyle;rounded=0;orthogonalLoop=1;jettySize=auto;html=1;exitX=0.5;exitY=1;exitDx=0;exitDy=0;entryX=0.5;entryY=0;entryDx=0;entryDy=0;" edge="1" parent="1" source="DMdOqw-Hk1IALb-FgSjt-19" target="DMdOqw-Hk1IALb-FgSjt-22">
          <mxGeometry relative="1" as="geometry">
            <Array as="points">
              <mxPoint x="180" y="515" />
              <mxPoint x="300" y="515" />
            </Array>
          </mxGeometry>
        </mxCell>
        <mxCell id="DMdOqw-Hk1IALb-FgSjt-19" value="Compute the sum from 1 to i and append to the list&lt;div&gt;+&lt;/div&gt;" style="rounded=1;whiteSpace=wrap;html=1;fontSize=11;" vertex="1" parent="1">
          <mxGeometry x="110" y="455" width="130" height="40" as="geometry" />
        </mxCell>
        <mxCell id="DMdOqw-Hk1IALb-FgSjt-27" style="edgeStyle=orthogonalEdgeStyle;rounded=0;orthogonalLoop=1;jettySize=auto;html=1;exitX=0.5;exitY=1;exitDx=0;exitDy=0;" edge="1" parent="1" source="DMdOqw-Hk1IALb-FgSjt-22">
          <mxGeometry relative="1" as="geometry">
            <mxPoint x="300" y="330" as="targetPoint" />
            <Array as="points">
              <mxPoint x="300" y="590" />
              <mxPoint x="90" y="590" />
              <mxPoint x="90" y="330" />
            </Array>
          </mxGeometry>
        </mxCell>
        <mxCell id="DMdOqw-Hk1IALb-FgSjt-22" value="Increase i by 1" style="rounded=1;whiteSpace=wrap;html=1;" vertex="1" parent="1">
          <mxGeometry x="240" y="530" width="120" height="40" as="geometry" />
        </mxCell>
      </root>
    </mxGraphModel>
  </diagram>
</mxfile>
